<?xml version="1.0" standalone="no"?>
<svg xmlns="http://www.w3.org/2000/svg" width="300" height="300"><defs><clipPath id="clip-path-dot-color"><rect x="1" y="100" width="9" height="9" transform="rotate(0,5.5,104.5)"/><rect x="1" y="109" width="9" height="9" transform="rotate(0,5.5,113.5)"/><rect x="1" y="127" width="9" height="9" transform="rotate(0,5.5,131.5)"/><rect x="1" y="136" width="9" height="9" transform="rotate(0,5.5,140.5)"/><rect x="1" y="163" width="9" height="9" transform="rotate(0,5.5,167.5)"/><rect x="1" y="181" width="9" height="9" transform="rotate(0,5.5,185.5)"/><rect x="1" y="199" width="9" height="9" transform="rotate(0,5.5,203.5)"/><rect x="10" y="73" width="9" height="9" transform="rotate(0,14.5,77.5)"/><rect x="10" y="82" width="9" height="9" transform="rotate(0,14.5,86.5)"/><rect x="10" y="109" width="9" height="9" transform="rotate(0,14.5,113.5)"/><rect x="10" y="136" width="9" height="9" transform="rotate(0,14.5,140.5)"/><rect x="10" y="145" width="9" height="9" transform="rotate(0,14.5,149.5)"/><rect x="10" y="154" width="9" height="9" transform="rotate(0,14.5,158.5)"/><rect x="10" y="172" width="9" height="9" transform="rotate(0,14.5,176.5)"/><rect x="10" y="190" width="9" height="9" transform="rotate(0,14.5,194.5)"/><rect x="10" y="199" width="9" height="9" transform="rotate(0,14.5,203.5)"/><rect x="19" y="118" width="9" height="9" transform="rotate(0,23.5,122.5)"/><rect x="19" y="136" width="9" height="9" transform="rotate(0,23.5,140.5)"/><rect x="19" y="145" width="9" height="9" transform="rotate(0,23.5,149.5)"/><rect x="19" y="154" width="9" height="9" transform="rotate(0,23.5,158.5)"/><rect x="19" y="163" width="9" height="9" transform="rotate(0,23.5,167.5)"/><rect x="19" y="172" width="9" height="9" transform="rotate(0,23.5,176.5)"/><rect x="19" y="181" width="9" height="9" transform="rotate(0,23.5,185.5)"/><rect x="19" y="199" width="9" height="9" transform="rotate(0,23.5,203.5)"/><rect x="19" y="217" width="9" height="9" transform="rotate(0,23.5,221.5)"/><rect x="28" y="73" width="9" height="9" transform="rotate(0,32.5,77.5)"/><rect x="28" y="91" width="9" height="9" transform="rotate(0,32.5,95.5)"/><rect x="28" y="100" width="9" height="9" transform="rotate(0,32.5,104.5)"/><rect x="28" y="109" width="9" height="9" transform="rotate(0,32.5,113.5)"/><rect x="28" y="127" width="9" height="9" transform="rotate(0,32.5,131.5)"/><rect x="28" y="136" width="9" height="9" transform="rotate(0,32.5,140.5)"/><rect x="28" y="145" width="9" height="9" transform="rotate(0,32.5,149.5)"/><rect x="28" y="172" width="9" height="9" transform="rotate(0,32.5,176.5)"/><rect x="28" y="208" width="9" height="9" transform="rotate(0,32.5,212.5)"/><rect x="37" y="73" width="9" height="9" transform="rotate(0,41.5,77.5)"/><rect x="37" y="91" width="9" height="9" transform="rotate(0,41.5,95.5)"/><rect x="37" y="100" width="9" height="9" transform="rotate(0,41.5,104.5)"/><rect x="37" y="109" width="9" height="9" transform="rotate(0,41.5,113.5)"/><rect x="37" y="118" width="9" height="9" transform="rotate(0,41.5,122.5)"/><rect x="37" y="127" width="9" height="9" transform="rotate(0,41.5,131.5)"/><rect x="37" y="145" width="9" height="9" transform="rotate(0,41.5,149.5)"/><rect x="37" y="163" width="9" height="9" transform="rotate(0,41.5,167.5)"/><rect x="37" y="181" width="9" height="9" transform="rotate(0,41.5,185.5)"/><rect x="37" y="208" width="9" height="9" transform="rotate(0,41.5,212.5)"/><rect x="37" y="217" width="9" height="9" transform="rotate(0,41.5,221.5)"/><rect x="46" y="100" width="9" height="9" transform="rotate(0,50.5,104.5)"/><rect x="46" y="118" width="9" height="9" transform="rotate(0,50.5,122.5)"/><rect x="46" y="181" width="9" height="9" transform="rotate(0,50.5,185.5)"/><rect x="46" y="190" width="9" height="9" transform="rotate(0,50.5,194.5)"/><rect x="46" y="208" width="9" height="9" transform="rotate(0,50.5,212.5)"/><rect x="55" y="73" width="9" height="9" transform="rotate(0,59.5,77.5)"/><rect x="55" y="91" width="9" height="9" transform="rotate(0,59.5,95.5)"/><rect x="55" y="109" width="9" height="9" transform="rotate(0,59.5,113.5)"/><rect x="55" y="127" width="9" height="9" transform="rotate(0,59.5,131.5)"/><rect x="55" y="145" width="9" height="9" transform="rotate(0,59.5,149.5)"/><rect x="55" y="163" width="9" height="9" transform="rotate(0,59.5,167.5)"/><rect x="55" y="181" width="9" height="9" transform="rotate(0,59.5,185.5)"/><rect x="55" y="199" width="9" height="9" transform="rotate(0,59.5,203.5)"/><rect x="55" y="217" width="9" height="9" transform="rotate(0,59.5,221.5)"/><rect x="64" y="73" width="9" height="9" transform="rotate(0,68.5,77.5)"/><rect x="64" y="100" width="9" height="9" transform="rotate(0,68.5,104.5)"/><rect x="64" y="163" width="9" height="9" transform="rotate(0,68.5,167.5)"/><rect x="64" y="172" width="9" height="9" transform="rotate(0,68.5,176.5)"/><rect x="64" y="181" width="9" height="9" transform="rotate(0,68.5,185.5)"/><rect x="64" y="217" width="9" height="9" transform="rotate(0,68.5,221.5)"/><rect x="73" y="10" width="9" height="9" transform="rotate(0,77.5,14.5)"/><rect x="73" y="28" width="9" height="9" transform="rotate(0,77.5,32.5)"/><rect x="73" y="37" width="9" height="9" transform="rotate(0,77.5,41.5)"/><rect x="73" y="46" width="9" height="9" transform="rotate(0,77.5,50.5)"/><rect x="73" y="55" width="9" height="9" transform="rotate(0,77.5,59.5)"/><rect x="73" y="73" width="9" height="9" transform="rotate(0,77.5,77.5)"/><rect x="73" y="82" width="9" height="9" transform="rotate(0,77.5,86.5)"/><rect x="73" y="91" width="9" height="9" transform="rotate(0,77.5,95.5)"/><rect x="73" y="100" width="9" height="9" transform="rotate(0,77.5,104.5)"/><rect x="73" y="136" width="9" height="9" transform="rotate(0,77.5,140.5)"/><rect x="73" y="145" width="9" height="9" transform="rotate(0,77.5,149.5)"/><rect x="73" y="154" width="9" height="9" transform="rotate(0,77.5,158.5)"/><rect x="73" y="172" width="9" height="9" transform="rotate(0,77.5,176.5)"/><rect x="73" y="217" width="9" height="9" transform="rotate(0,77.5,221.5)"/><rect x="73" y="226" width="9" height="9" transform="rotate(0,77.5,230.5)"/><rect x="73" y="235" width="9" height="9" transform="rotate(0,77.5,239.5)"/><rect x="73" y="253" width="9" height="9" transform="rotate(0,77.5,257.5)"/><rect x="73" y="262" width="9" height="9" transform="rotate(0,77.5,266.5)"/><rect x="73" y="280" width="9" height="9" transform="rotate(0,77.5,284.5)"/><rect x="82" y="1" width="9" height="9" transform="rotate(0,86.5,5.5)"/><rect x="82" y="19" width="9" height="9" transform="rotate(0,86.5,23.5)"/><rect x="82" y="37" width="9" height="9" transform="rotate(0,86.5,41.5)"/><rect x="82" y="46" width="9" height="9" transform="rotate(0,86.5,50.5)"/><rect x="82" y="64" width="9" height="9" transform="rotate(0,86.5,68.5)"/><rect x="82" y="73" width="9" height="9" transform="rotate(0,86.5,77.5)"/><rect x="82" y="82" width="9" height="9" transform="rotate(0,86.5,86.5)"/><rect x="82" y="100" width="9" height="9" transform="rotate(0,86.5,104.5)"/><rect x="82" y="109" width="9" height="9" transform="rotate(0,86.5,113.5)"/><rect x="82" y="127" width="9" height="9" transform="rotate(0,86.5,131.5)"/><rect x="82" y="136" width="9" height="9" transform="rotate(0,86.5,140.5)"/><rect x="82" y="145" width="9" height="9" transform="rotate(0,86.5,149.5)"/><rect x="82" y="163" width="9" height="9" transform="rotate(0,86.5,167.5)"/><rect x="82" y="172" width="9" height="9" transform="rotate(0,86.5,176.5)"/><rect x="82" y="208" width="9" height="9" transform="rotate(0,86.5,212.5)"/><rect x="82" y="253" width="9" height="9" transform="rotate(0,86.5,257.5)"/><rect x="82" y="262" width="9" height="9" transform="rotate(0,86.5,266.5)"/><rect x="82" y="271" width="9" height="9" transform="rotate(0,86.5,275.5)"/><rect x="91" y="1" width="9" height="9" transform="rotate(0,95.5,5.5)"/><rect x="91" y="10" width="9" height="9" transform="rotate(0,95.5,14.5)"/><rect x="91" y="19" width="9" height="9" transform="rotate(0,95.5,23.5)"/><rect x="91" y="28" width="9" height="9" transform="rotate(0,95.5,32.5)"/><rect x="91" y="55" width="9" height="9" transform="rotate(0,95.5,59.5)"/><rect x="91" y="64" width="9" height="9" transform="rotate(0,95.5,68.5)"/><rect x="91" y="91" width="9" height="9" transform="rotate(0,95.5,95.5)"/><rect x="91" y="118" width="9" height="9" transform="rotate(0,95.5,122.5)"/><rect x="91" y="154" width="9" height="9" transform="rotate(0,95.5,158.5)"/><rect x="91" y="163" width="9" height="9" transform="rotate(0,95.5,167.5)"/><rect x="91" y="190" width="9" height="9" transform="rotate(0,95.5,194.5)"/><rect x="91" y="208" width="9" height="9" transform="rotate(0,95.5,212.5)"/><rect x="91" y="217" width="9" height="9" transform="rotate(0,95.5,221.5)"/><rect x="91" y="226" width="9" height="9" transform="rotate(0,95.5,230.5)"/><rect x="91" y="253" width="9" height="9" transform="rotate(0,95.5,257.5)"/><rect x="91" y="262" width="9" height="9" transform="rotate(0,95.5,266.5)"/><rect x="91" y="271" width="9" height="9" transform="rotate(0,95.5,275.5)"/><rect x="91" y="289" width="9" height="9" transform="rotate(0,95.5,293.5)"/><rect x="100" y="1" width="9" height="9" transform="rotate(0,104.5,5.5)"/><rect x="100" y="37" width="9" height="9" transform="rotate(0,104.5,41.5)"/><rect x="100" y="46" width="9" height="9" transform="rotate(0,104.5,50.5)"/><rect x="100" y="73" width="9" height="9" transform="rotate(0,104.5,77.5)"/><rect x="100" y="82" width="9" height="9" transform="rotate(0,104.5,86.5)"/><rect x="100" y="91" width="9" height="9" transform="rotate(0,104.5,95.5)"/><rect x="100" y="109" width="9" height="9" transform="rotate(0,104.5,113.5)"/><rect x="100" y="118" width="9" height="9" transform="rotate(0,104.5,122.5)"/><rect x="100" y="136" width="9" height="9" transform="rotate(0,104.5,140.5)"/><rect x="100" y="154" width="9" height="9" transform="rotate(0,104.5,158.5)"/><rect x="100" y="226" width="9" height="9" transform="rotate(0,104.5,230.5)"/><rect x="100" y="235" width="9" height="9" transform="rotate(0,104.5,239.5)"/><rect x="100" y="244" width="9" height="9" transform="rotate(0,104.5,248.5)"/><rect x="100" y="271" width="9" height="9" transform="rotate(0,104.5,275.5)"/><rect x="100" y="280" width="9" height="9" transform="rotate(0,104.5,284.5)"/><rect x="109" y="1" width="9" height="9" transform="rotate(0,113.5,5.5)"/><rect x="109" y="10" width="9" height="9" transform="rotate(0,113.5,14.5)"/><rect x="109" y="19" width="9" height="9" transform="rotate(0,113.5,23.5)"/><rect x="109" y="28" width="9" height="9" transform="rotate(0,113.5,32.5)"/><rect x="109" y="37" width="9" height="9" transform="rotate(0,113.5,41.5)"/><rect x="109" y="46" width="9" height="9" transform="rotate(0,113.5,50.5)"/><rect x="109" y="55" width="9" height="9" transform="rotate(0,113.5,59.5)"/><rect x="109" y="82" width="9" height="9" transform="rotate(0,113.5,86.5)"/><rect x="109" y="91" width="9" height="9" transform="rotate(0,113.5,95.5)"/><rect x="109" y="109" width="9" height="9" transform="rotate(0,113.5,113.5)"/><rect x="109" y="127" width="9" height="9" transform="rotate(0,113.5,131.5)"/><rect x="109" y="154" width="9" height="9" transform="rotate(0,113.5,158.5)"/><rect x="109" y="163" width="9" height="9" transform="rotate(0,113.5,167.5)"/><rect x="109" y="172" width="9" height="9" transform="rotate(0,113.5,176.5)"/><rect x="109" y="181" width="9" height="9" transform="rotate(0,113.5,185.5)"/><rect x="109" y="190" width="9" height="9" transform="rotate(0,113.5,194.5)"/><rect x="109" y="199" width="9" height="9" transform="rotate(0,113.5,203.5)"/><rect x="109" y="217" width="9" height="9" transform="rotate(0,113.5,221.5)"/><rect x="109" y="235" width="9" height="9" transform="rotate(0,113.5,239.5)"/><rect x="109" y="253" width="9" height="9" transform="rotate(0,113.5,257.5)"/><rect x="118" y="19" width="9" height="9" transform="rotate(0,122.5,23.5)"/><rect x="118" y="28" width="9" height="9" transform="rotate(0,122.5,32.5)"/><rect x="118" y="37" width="9" height="9" transform="rotate(0,122.5,41.5)"/><rect x="118" y="46" width="9" height="9" transform="rotate(0,122.5,50.5)"/><rect x="118" y="73" width="9" height="9" transform="rotate(0,122.5,77.5)"/><rect x="118" y="91" width="9" height="9" transform="rotate(0,122.5,95.5)"/><rect x="118" y="100" width="9" height="9" transform="rotate(0,122.5,104.5)"/><rect x="118" y="118" width="9" height="9" transform="rotate(0,122.5,122.5)"/><rect x="118" y="145" width="9" height="9" transform="rotate(0,122.5,149.5)"/><rect x="118" y="172" width="9" height="9" transform="rotate(0,122.5,176.5)"/><rect x="118" y="199" width="9" height="9" transform="rotate(0,122.5,203.5)"/><rect x="118" y="226" width="9" height="9" transform="rotate(0,122.5,230.5)"/><rect x="118" y="244" width="9" height="9" transform="rotate(0,122.5,248.5)"/><rect x="118" y="262" width="9" height="9" transform="rotate(0,122.5,266.5)"/><rect x="127" y="1" width="9" height="9" transform="rotate(0,131.5,5.5)"/><rect x="127" y="19" width="9" height="9" transform="rotate(0,131.5,23.5)"/><rect x="127" y="28" width="9" height="9" transform="rotate(0,131.5,32.5)"/><rect x="127" y="37" width="9" height="9" transform="rotate(0,131.5,41.5)"/><rect x="127" y="55" width="9" height="9" transform="rotate(0,131.5,59.5)"/><rect x="127" y="64" width="9" height="9" transform="rotate(0,131.5,68.5)"/><rect x="127" y="73" width="9" height="9" transform="rotate(0,131.5,77.5)"/><rect x="127" y="100" width="9" height="9" transform="rotate(0,131.5,104.5)"/><rect x="127" y="109" width="9" height="9" transform="rotate(0,131.5,113.5)"/><rect x="127" y="118" width="9" height="9" transform="rotate(0,131.5,122.5)"/><rect x="127" y="136" width="9" height="9" transform="rotate(0,131.5,140.5)"/><rect x="127" y="154" width="9" height="9" transform="rotate(0,131.5,158.5)"/><rect x="127" y="163" width="9" height="9" transform="rotate(0,131.5,167.5)"/><rect x="127" y="199" width="9" height="9" transform="rotate(0,131.5,203.5)"/><rect x="127" y="208" width="9" height="9" transform="rotate(0,131.5,212.5)"/><rect x="127" y="217" width="9" height="9" transform="rotate(0,131.5,221.5)"/><rect x="127" y="235" width="9" height="9" transform="rotate(0,131.5,239.5)"/><rect x="127" y="262" width="9" height="9" transform="rotate(0,131.5,266.5)"/><rect x="136" y="1" width="9" height="9" transform="rotate(0,140.5,5.5)"/><rect x="136" y="19" width="9" height="9" transform="rotate(0,140.5,23.5)"/><rect x="136" y="28" width="9" height="9" transform="rotate(0,140.5,32.5)"/><rect x="136" y="37" width="9" height="9" transform="rotate(0,140.5,41.5)"/><rect x="136" y="46" width="9" height="9" transform="rotate(0,140.5,50.5)"/><rect x="136" y="82" width="9" height="9" transform="rotate(0,140.5,86.5)"/><rect x="136" y="91" width="9" height="9" transform="rotate(0,140.5,95.5)"/><rect x="136" y="100" width="9" height="9" transform="rotate(0,140.5,104.5)"/><rect x="136" y="118" width="9" height="9" transform="rotate(0,140.5,122.5)"/><rect x="136" y="127" width="9" height="9" transform="rotate(0,140.5,131.5)"/><rect x="136" y="145" width="9" height="9" transform="rotate(0,140.5,149.5)"/><rect x="136" y="163" width="9" height="9" transform="rotate(0,140.5,167.5)"/><rect x="136" y="172" width="9" height="9" transform="rotate(0,140.5,176.5)"/><rect x="136" y="208" width="9" height="9" transform="rotate(0,140.5,212.5)"/><rect x="136" y="226" width="9" height="9" transform="rotate(0,140.5,230.5)"/><rect x="136" y="244" width="9" height="9" transform="rotate(0,140.5,248.5)"/><rect x="136" y="262" width="9" height="9" transform="rotate(0,140.5,266.5)"/><rect x="136" y="271" width="9" height="9" transform="rotate(0,140.5,275.5)"/><rect x="136" y="289" width="9" height="9" transform="rotate(0,140.5,293.5)"/><rect x="145" y="55" width="9" height="9" transform="rotate(0,149.5,59.5)"/><rect x="145" y="64" width="9" height="9" transform="rotate(0,149.5,68.5)"/><rect x="145" y="91" width="9" height="9" transform="rotate(0,149.5,95.5)"/><rect x="145" y="100" width="9" height="9" transform="rotate(0,149.5,104.5)"/><rect x="145" y="118" width="9" height="9" transform="rotate(0,149.5,122.5)"/><rect x="145" y="172" width="9" height="9" transform="rotate(0,149.5,176.5)"/><rect x="145" y="181" width="9" height="9" transform="rotate(0,149.5,185.5)"/><rect x="145" y="199" width="9" height="9" transform="rotate(0,149.5,203.5)"/><rect x="145" y="217" width="9" height="9" transform="rotate(0,149.5,221.5)"/><rect x="145" y="226" width="9" height="9" transform="rotate(0,149.5,230.5)"/><rect x="145" y="235" width="9" height="9" transform="rotate(0,149.5,239.5)"/><rect x="145" y="244" width="9" height="9" transform="rotate(0,149.5,248.5)"/><rect x="145" y="253" width="9" height="9" transform="rotate(0,149.5,257.5)"/><rect x="145" y="262" width="9" height="9" transform="rotate(0,149.5,266.5)"/><rect x="154" y="10" width="9" height="9" transform="rotate(0,158.5,14.5)"/><rect x="154" y="19" width="9" height="9" transform="rotate(0,158.5,23.5)"/><rect x="154" y="28" width="9" height="9" transform="rotate(0,158.5,32.5)"/><rect x="154" y="46" width="9" height="9" transform="rotate(0,158.5,50.5)"/><rect x="154" y="82" width="9" height="9" transform="rotate(0,158.5,86.5)"/><rect x="154" y="109" width="9" height="9" transform="rotate(0,158.5,113.5)"/><rect x="154" y="118" width="9" height="9" transform="rotate(0,158.5,122.5)"/><rect x="154" y="136" width="9" height="9" transform="rotate(0,158.5,140.5)"/><rect x="154" y="154" width="9" height="9" transform="rotate(0,158.5,158.5)"/><rect x="154" y="163" width="9" height="9" transform="rotate(0,158.5,167.5)"/><rect x="154" y="172" width="9" height="9" transform="rotate(0,158.5,176.5)"/><rect x="154" y="181" width="9" height="9" transform="rotate(0,158.5,185.5)"/><rect x="154" y="190" width="9" height="9" transform="rotate(0,158.5,194.5)"/><rect x="154" y="217" width="9" height="9" transform="rotate(0,158.5,221.5)"/><rect x="154" y="226" width="9" height="9" transform="rotate(0,158.5,230.5)"/><rect x="154" y="235" width="9" height="9" transform="rotate(0,158.5,239.5)"/><rect x="154" y="253" width="9" height="9" transform="rotate(0,158.5,257.5)"/><rect x="154" y="271" width="9" height="9" transform="rotate(0,158.5,275.5)"/><rect x="154" y="289" width="9" height="9" transform="rotate(0,158.5,293.5)"/><rect x="163" y="1" width="9" height="9" transform="rotate(0,167.5,5.5)"/><rect x="163" y="10" width="9" height="9" transform="rotate(0,167.5,14.5)"/><rect x="163" y="46" width="9" height="9" transform="rotate(0,167.5,50.5)"/><rect x="163" y="55" width="9" height="9" transform="rotate(0,167.5,59.5)"/><rect x="163" y="91" width="9" height="9" transform="rotate(0,167.5,95.5)"/><rect x="163" y="100" width="9" height="9" transform="rotate(0,167.5,104.5)"/><rect x="163" y="109" width="9" height="9" transform="rotate(0,167.5,113.5)"/><rect x="163" y="136" width="9" height="9" transform="rotate(0,167.5,140.5)"/><rect x="163" y="154" width="9" height="9" transform="rotate(0,167.5,158.5)"/><rect x="163" y="163" width="9" height="9" transform="rotate(0,167.5,167.5)"/><rect x="163" y="172" width="9" height="9" transform="rotate(0,167.5,176.5)"/><rect x="163" y="181" width="9" height="9" transform="rotate(0,167.5,185.5)"/><rect x="163" y="208" width="9" height="9" transform="rotate(0,167.5,212.5)"/><rect x="163" y="226" width="9" height="9" transform="rotate(0,167.5,230.5)"/><rect x="163" y="244" width="9" height="9" transform="rotate(0,167.5,248.5)"/><rect x="163" y="262" width="9" height="9" transform="rotate(0,167.5,266.5)"/><rect x="163" y="271" width="9" height="9" transform="rotate(0,167.5,275.5)"/><rect x="163" y="289" width="9" height="9" transform="rotate(0,167.5,293.5)"/><rect x="172" y="10" width="9" height="9" transform="rotate(0,176.5,14.5)"/><rect x="172" y="37" width="9" height="9" transform="rotate(0,176.5,41.5)"/><rect x="172" y="46" width="9" height="9" transform="rotate(0,176.5,50.5)"/><rect x="172" y="73" width="9" height="9" transform="rotate(0,176.5,77.5)"/><rect x="172" y="82" width="9" height="9" transform="rotate(0,176.5,86.5)"/><rect x="172" y="100" width="9" height="9" transform="rotate(0,176.5,104.5)"/><rect x="172" y="118" width="9" height="9" transform="rotate(0,176.5,122.5)"/><rect x="172" y="127" width="9" height="9" transform="rotate(0,176.5,131.5)"/><rect x="172" y="154" width="9" height="9" transform="rotate(0,176.5,158.5)"/><rect x="172" y="163" width="9" height="9" transform="rotate(0,176.5,167.5)"/><rect x="172" y="181" width="9" height="9" transform="rotate(0,176.5,185.5)"/><rect x="172" y="190" width="9" height="9" transform="rotate(0,176.5,194.5)"/><rect x="172" y="208" width="9" height="9" transform="rotate(0,176.5,212.5)"/><rect x="172" y="226" width="9" height="9" transform="rotate(0,176.5,230.5)"/><rect x="172" y="235" width="9" height="9" transform="rotate(0,176.5,239.5)"/><rect x="172" y="253" width="9" height="9" transform="rotate(0,176.5,257.5)"/><rect x="172" y="262" width="9" height="9" transform="rotate(0,176.5,266.5)"/><rect x="172" y="271" width="9" height="9" transform="rotate(0,176.5,275.5)"/><rect x="181" y="1" width="9" height="9" transform="rotate(0,185.5,5.5)"/><rect x="181" y="10" width="9" height="9" transform="rotate(0,185.5,14.5)"/><rect x="181" y="28" width="9" height="9" transform="rotate(0,185.5,32.5)"/><rect x="181" y="37" width="9" height="9" transform="rotate(0,185.5,41.5)"/><rect x="181" y="55" width="9" height="9" transform="rotate(0,185.5,59.5)"/><rect x="181" y="64" width="9" height="9" transform="rotate(0,185.5,68.5)"/><rect x="181" y="82" width="9" height="9" transform="rotate(0,185.5,86.5)"/><rect x="181" y="127" width="9" height="9" transform="rotate(0,185.5,131.5)"/><rect x="181" y="136" width="9" height="9" transform="rotate(0,185.5,140.5)"/><rect x="181" y="145" width="9" height="9" transform="rotate(0,185.5,149.5)"/><rect x="181" y="172" width="9" height="9" transform="rotate(0,185.5,176.5)"/><rect x="181" y="181" width="9" height="9" transform="rotate(0,185.5,185.5)"/><rect x="181" y="190" width="9" height="9" transform="rotate(0,185.5,194.5)"/><rect x="181" y="217" width="9" height="9" transform="rotate(0,185.5,221.5)"/><rect x="181" y="253" width="9" height="9" transform="rotate(0,185.5,257.5)"/><rect x="181" y="262" width="9" height="9" transform="rotate(0,185.5,266.5)"/><rect x="181" y="289" width="9" height="9" transform="rotate(0,185.5,293.5)"/><rect x="190" y="1" width="9" height="9" transform="rotate(0,194.5,5.5)"/><rect x="190" y="10" width="9" height="9" transform="rotate(0,194.5,14.5)"/><rect x="190" y="73" width="9" height="9" transform="rotate(0,194.5,77.5)"/><rect x="190" y="109" width="9" height="9" transform="rotate(0,194.5,113.5)"/><rect x="190" y="118" width="9" height="9" transform="rotate(0,194.5,122.5)"/><rect x="190" y="136" width="9" height="9" transform="rotate(0,194.5,140.5)"/><rect x="190" y="154" width="9" height="9" transform="rotate(0,194.5,158.5)"/><rect x="190" y="181" width="9" height="9" transform="rotate(0,194.5,185.5)"/><rect x="190" y="199" width="9" height="9" transform="rotate(0,194.5,203.5)"/><rect x="190" y="217" width="9" height="9" transform="rotate(0,194.5,221.5)"/><rect x="190" y="244" width="9" height="9" transform="rotate(0,194.5,248.5)"/><rect x="190" y="253" width="9" height="9" transform="rotate(0,194.5,257.5)"/><rect x="199" y="1" width="9" height="9" transform="rotate(0,203.5,5.5)"/><rect x="199" y="28" width="9" height="9" transform="rotate(0,203.5,32.5)"/><rect x="199" y="46" width="9" height="9" transform="rotate(0,203.5,50.5)"/><rect x="199" y="55" width="9" height="9" transform="rotate(0,203.5,59.5)"/><rect x="199" y="64" width="9" height="9" transform="rotate(0,203.5,68.5)"/><rect x="199" y="82" width="9" height="9" transform="rotate(0,203.5,86.5)"/><rect x="199" y="91" width="9" height="9" transform="rotate(0,203.5,95.5)"/><rect x="199" y="100" width="9" height="9" transform="rotate(0,203.5,104.5)"/><rect x="199" y="109" width="9" height="9" transform="rotate(0,203.5,113.5)"/><rect x="199" y="127" width="9" height="9" transform="rotate(0,203.5,131.5)"/><rect x="199" y="145" width="9" height="9" transform="rotate(0,203.5,149.5)"/><rect x="199" y="154" width="9" height="9" transform="rotate(0,203.5,158.5)"/><rect x="199" y="190" width="9" height="9" transform="rotate(0,203.5,194.5)"/><rect x="199" y="199" width="9" height="9" transform="rotate(0,203.5,203.5)"/><rect x="199" y="208" width="9" height="9" transform="rotate(0,203.5,212.5)"/><rect x="199" y="226" width="9" height="9" transform="rotate(0,203.5,230.5)"/><rect x="199" y="235" width="9" height="9" transform="rotate(0,203.5,239.5)"/><rect x="199" y="244" width="9" height="9" transform="rotate(0,203.5,248.5)"/><rect x="199" y="253" width="9" height="9" transform="rotate(0,203.5,257.5)"/><rect x="199" y="271" width="9" height="9" transform="rotate(0,203.5,275.5)"/><rect x="199" y="280" width="9" height="9" transform="rotate(0,203.5,284.5)"/><rect x="199" y="289" width="9" height="9" transform="rotate(0,203.5,293.5)"/><rect x="208" y="1" width="9" height="9" transform="rotate(0,212.5,5.5)"/><rect x="208" y="19" width="9" height="9" transform="rotate(0,212.5,23.5)"/><rect x="208" y="28" width="9" height="9" transform="rotate(0,212.5,32.5)"/><rect x="208" y="37" width="9" height="9" transform="rotate(0,212.5,41.5)"/><rect x="208" y="91" width="9" height="9" transform="rotate(0,212.5,95.5)"/><rect x="208" y="109" width="9" height="9" transform="rotate(0,212.5,113.5)"/><rect x="208" y="145" width="9" height="9" transform="rotate(0,212.5,149.5)"/><rect x="208" y="154" width="9" height="9" transform="rotate(0,212.5,158.5)"/><rect x="208" y="163" width="9" height="9" transform="rotate(0,212.5,167.5)"/><rect x="208" y="199" width="9" height="9" transform="rotate(0,212.5,203.5)"/><rect x="208" y="226" width="9" height="9" transform="rotate(0,212.5,230.5)"/><rect x="208" y="235" width="9" height="9" transform="rotate(0,212.5,239.5)"/><rect x="208" y="244" width="9" height="9" transform="rotate(0,212.5,248.5)"/><rect x="208" y="271" width="9" height="9" transform="rotate(0,212.5,275.5)"/><rect x="208" y="289" width="9" height="9" transform="rotate(0,212.5,293.5)"/><rect x="217" y="1" width="9" height="9" transform="rotate(0,221.5,5.5)"/><rect x="217" y="10" width="9" height="9" transform="rotate(0,221.5,14.5)"/><rect x="217" y="19" width="9" height="9" transform="rotate(0,221.5,23.5)"/><rect x="217" y="37" width="9" height="9" transform="rotate(0,221.5,41.5)"/><rect x="217" y="55" width="9" height="9" transform="rotate(0,221.5,59.5)"/><rect x="217" y="73" width="9" height="9" transform="rotate(0,221.5,77.5)"/><rect x="217" y="91" width="9" height="9" transform="rotate(0,221.5,95.5)"/><rect x="217" y="109" width="9" height="9" transform="rotate(0,221.5,113.5)"/><rect x="217" y="118" width="9" height="9" transform="rotate(0,221.5,122.5)"/><rect x="217" y="145" width="9" height="9" transform="rotate(0,221.5,149.5)"/><rect x="217" y="154" width="9" height="9" transform="rotate(0,221.5,158.5)"/><rect x="217" y="172" width="9" height="9" transform="rotate(0,221.5,176.5)"/><rect x="217" y="217" width="9" height="9" transform="rotate(0,221.5,221.5)"/><rect x="217" y="226" width="9" height="9" transform="rotate(0,221.5,230.5)"/><rect x="217" y="235" width="9" height="9" transform="rotate(0,221.5,239.5)"/><rect x="217" y="244" width="9" height="9" transform="rotate(0,221.5,248.5)"/><rect x="217" y="253" width="9" height="9" transform="rotate(0,221.5,257.5)"/><rect x="217" y="262" width="9" height="9" transform="rotate(0,221.5,266.5)"/><rect x="217" y="280" width="9" height="9" transform="rotate(0,221.5,284.5)"/><rect x="217" y="289" width="9" height="9" transform="rotate(0,221.5,293.5)"/><rect x="226" y="73" width="9" height="9" transform="rotate(0,230.5,77.5)"/><rect x="226" y="82" width="9" height="9" transform="rotate(0,230.5,86.5)"/><rect x="226" y="91" width="9" height="9" transform="rotate(0,230.5,95.5)"/><rect x="226" y="109" width="9" height="9" transform="rotate(0,230.5,113.5)"/><rect x="226" y="127" width="9" height="9" transform="rotate(0,230.5,131.5)"/><rect x="226" y="136" width="9" height="9" transform="rotate(0,230.5,140.5)"/><rect x="226" y="154" width="9" height="9" transform="rotate(0,230.5,158.5)"/><rect x="226" y="208" width="9" height="9" transform="rotate(0,230.5,212.5)"/><rect x="226" y="217" width="9" height="9" transform="rotate(0,230.5,221.5)"/><rect x="226" y="253" width="9" height="9" transform="rotate(0,230.5,257.5)"/><rect x="226" y="271" width="9" height="9" transform="rotate(0,230.5,275.5)"/><rect x="226" y="280" width="9" height="9" transform="rotate(0,230.5,284.5)"/><rect x="235" y="82" width="9" height="9" transform="rotate(0,239.5,86.5)"/><rect x="235" y="100" width="9" height="9" transform="rotate(0,239.5,104.5)"/><rect x="235" y="109" width="9" height="9" transform="rotate(0,239.5,113.5)"/><rect x="235" y="127" width="9" height="9" transform="rotate(0,239.5,131.5)"/><rect x="235" y="163" width="9" height="9" transform="rotate(0,239.5,167.5)"/><rect x="235" y="172" width="9" height="9" transform="rotate(0,239.5,176.5)"/><rect x="235" y="181" width="9" height="9" transform="rotate(0,239.5,185.5)"/><rect x="235" y="190" width="9" height="9" transform="rotate(0,239.5,194.5)"/><rect x="235" y="199" width="9" height="9" transform="rotate(0,239.5,203.5)"/><rect x="235" y="208" width="9" height="9" transform="rotate(0,239.5,212.5)"/><rect x="235" y="217" width="9" height="9" transform="rotate(0,239.5,221.5)"/><rect x="235" y="235" width="9" height="9" transform="rotate(0,239.5,239.5)"/><rect x="235" y="253" width="9" height="9" transform="rotate(0,239.5,257.5)"/><rect x="235" y="271" width="9" height="9" transform="rotate(0,239.5,275.5)"/><rect x="244" y="73" width="9" height="9" transform="rotate(0,248.5,77.5)"/><rect x="244" y="100" width="9" height="9" transform="rotate(0,248.5,104.5)"/><rect x="244" y="136" width="9" height="9" transform="rotate(0,248.5,140.5)"/><rect x="244" y="145" width="9" height="9" transform="rotate(0,248.5,149.5)"/><rect x="244" y="163" width="9" height="9" transform="rotate(0,248.5,167.5)"/><rect x="244" y="172" width="9" height="9" transform="rotate(0,248.5,176.5)"/><rect x="244" y="208" width="9" height="9" transform="rotate(0,248.5,212.5)"/><rect x="244" y="217" width="9" height="9" transform="rotate(0,248.5,221.5)"/><rect x="244" y="253" width="9" height="9" transform="rotate(0,248.5,257.5)"/><rect x="244" y="262" width="9" height="9" transform="rotate(0,248.5,266.5)"/><rect x="244" y="271" width="9" height="9" transform="rotate(0,248.5,275.5)"/><rect x="244" y="280" width="9" height="9" transform="rotate(0,248.5,284.5)"/><rect x="253" y="73" width="9" height="9" transform="rotate(0,257.5,77.5)"/><rect x="253" y="82" width="9" height="9" transform="rotate(0,257.5,86.5)"/><rect x="253" y="118" width="9" height="9" transform="rotate(0,257.5,122.5)"/><rect x="253" y="181" width="9" height="9" transform="rotate(0,257.5,185.5)"/><rect x="253" y="190" width="9" height="9" transform="rotate(0,257.5,194.5)"/><rect x="253" y="208" width="9" height="9" transform="rotate(0,257.5,212.5)"/><rect x="253" y="217" width="9" height="9" transform="rotate(0,257.5,221.5)"/><rect x="253" y="226" width="9" height="9" transform="rotate(0,257.5,230.5)"/><rect x="253" y="235" width="9" height="9" transform="rotate(0,257.5,239.5)"/><rect x="253" y="244" width="9" height="9" transform="rotate(0,257.5,248.5)"/><rect x="253" y="253" width="9" height="9" transform="rotate(0,257.5,257.5)"/><rect x="253" y="289" width="9" height="9" transform="rotate(0,257.5,293.5)"/><rect x="262" y="73" width="9" height="9" transform="rotate(0,266.5,77.5)"/><rect x="262" y="91" width="9" height="9" transform="rotate(0,266.5,95.5)"/><rect x="262" y="109" width="9" height="9" transform="rotate(0,266.5,113.5)"/><rect x="262" y="136" width="9" height="9" transform="rotate(0,266.5,140.5)"/><rect x="262" y="145" width="9" height="9" transform="rotate(0,266.5,149.5)"/><rect x="262" y="181" width="9" height="9" transform="rotate(0,266.5,185.5)"/><rect x="262" y="226" width="9" height="9" transform="rotate(0,266.5,230.5)"/><rect x="262" y="244" width="9" height="9" transform="rotate(0,266.5,248.5)"/><rect x="262" y="289" width="9" height="9" transform="rotate(0,266.5,293.5)"/><rect x="271" y="100" width="9" height="9" transform="rotate(0,275.5,104.5)"/><rect x="271" y="109" width="9" height="9" transform="rotate(0,275.5,113.5)"/><rect x="271" y="136" width="9" height="9" transform="rotate(0,275.5,140.5)"/><rect x="271" y="154" width="9" height="9" transform="rotate(0,275.5,158.5)"/><rect x="271" y="163" width="9" height="9" transform="rotate(0,275.5,167.5)"/><rect x="271" y="181" width="9" height="9" transform="rotate(0,275.5,185.5)"/><rect x="271" y="190" width="9" height="9" transform="rotate(0,275.5,194.5)"/><rect x="271" y="199" width="9" height="9" transform="rotate(0,275.5,203.5)"/><rect x="271" y="217" width="9" height="9" transform="rotate(0,275.5,221.5)"/><rect x="271" y="244" width="9" height="9" transform="rotate(0,275.5,248.5)"/><rect x="271" y="253" width="9" height="9" transform="rotate(0,275.5,257.5)"/><rect x="271" y="262" width="9" height="9" transform="rotate(0,275.5,266.5)"/><rect x="271" y="280" width="9" height="9" transform="rotate(0,275.5,284.5)"/><rect x="271" y="289" width="9" height="9" transform="rotate(0,275.5,293.5)"/><rect x="280" y="73" width="9" height="9" transform="rotate(0,284.5,77.5)"/><rect x="280" y="82" width="9" height="9" transform="rotate(0,284.5,86.5)"/><rect x="280" y="109" width="9" height="9" transform="rotate(0,284.5,113.5)"/><rect x="280" y="136" width="9" height="9" transform="rotate(0,284.5,140.5)"/><rect x="280" y="154" width="9" height="9" transform="rotate(0,284.5,158.5)"/><rect x="280" y="199" width="9" height="9" transform="rotate(0,284.5,203.5)"/><rect x="280" y="244" width="9" height="9" transform="rotate(0,284.5,248.5)"/><rect x="280" y="253" width="9" height="9" transform="rotate(0,284.5,257.5)"/><rect x="280" y="271" width="9" height="9" transform="rotate(0,284.5,275.5)"/><rect x="280" y="280" width="9" height="9" transform="rotate(0,284.5,284.5)"/><rect x="280" y="289" width="9" height="9" transform="rotate(0,284.5,293.5)"/><rect x="289" y="100" width="9" height="9" transform="rotate(0,293.5,104.5)"/><rect x="289" y="109" width="9" height="9" transform="rotate(0,293.5,113.5)"/><rect x="289" y="118" width="9" height="9" transform="rotate(0,293.5,122.5)"/><rect x="289" y="127" width="9" height="9" transform="rotate(0,293.5,131.5)"/><rect x="289" y="163" width="9" height="9" transform="rotate(0,293.5,167.5)"/><rect x="289" y="217" width="9" height="9" transform="rotate(0,293.5,221.5)"/><rect x="289" y="235" width="9" height="9" transform="rotate(0,293.5,239.5)"/><rect x="289" y="244" width="9" height="9" transform="rotate(0,293.5,248.5)"/><rect x="289" y="253" width="9" height="9" transform="rotate(0,293.5,257.5)"/><path clip-rule="evenodd" d="M 1 1v 63h 63v -63zM 10 10h 45v 45h -45z" transform="rotate(0,32.5,32.5)"/><rect x="19" y="19" width="9" height="9" transform="rotate(0,23.5,23.5)"/><rect x="19" y="28" width="9" height="9" transform="rotate(0,23.5,32.5)"/><rect x="19" y="37" width="9" height="9" transform="rotate(0,23.5,41.5)"/><rect x="28" y="19" width="9" height="9" transform="rotate(0,32.5,23.5)"/><rect x="28" y="28" width="9" height="9" transform="rotate(0,32.5,32.5)"/><rect x="28" y="37" width="9" height="9" transform="rotate(0,32.5,41.5)"/><rect x="37" y="19" width="9" height="9" transform="rotate(0,41.5,23.5)"/><rect x="37" y="28" width="9" height="9" transform="rotate(0,41.5,32.5)"/><rect x="37" y="37" width="9" height="9" transform="rotate(0,41.5,41.5)"/><path clip-rule="evenodd" d="M 235 1v 63h 63v -63zM 244 10h 45v 45h -45z" transform="rotate(90,266.5,32.5)"/><rect x="253" y="19" width="9" height="9" transform="rotate(0,257.5,23.5)"/><rect x="253" y="28" width="9" height="9" transform="rotate(0,257.5,32.5)"/><rect x="253" y="37" width="9" height="9" transform="rotate(0,257.5,41.5)"/><rect x="262" y="19" width="9" height="9" transform="rotate(0,266.5,23.5)"/><rect x="262" y="28" width="9" height="9" transform="rotate(0,266.5,32.5)"/><rect x="262" y="37" width="9" height="9" transform="rotate(0,266.5,41.5)"/><rect x="271" y="19" width="9" height="9" transform="rotate(0,275.5,23.5)"/><rect x="271" y="28" width="9" height="9" transform="rotate(0,275.5,32.5)"/><rect x="271" y="37" width="9" height="9" transform="rotate(0,275.5,41.5)"/><path clip-rule="evenodd" d="M 1 235v 63h 63v -63zM 10 244h 45v 45h -45z" transform="rotate(-90,32.5,266.5)"/><rect x="19" y="253" width="9" height="9" transform="rotate(0,23.5,257.5)"/><rect x="19" y="262" width="9" height="9" transform="rotate(0,23.5,266.5)"/><rect x="19" y="271" width="9" height="9" transform="rotate(0,23.5,275.5)"/><rect x="28" y="253" width="9" height="9" transform="rotate(0,32.5,257.5)"/><rect x="28" y="262" width="9" height="9" transform="rotate(0,32.5,266.5)"/><rect x="28" y="271" width="9" height="9" transform="rotate(0,32.5,275.5)"/><rect x="37" y="253" width="9" height="9" transform="rotate(0,41.5,257.5)"/><rect x="37" y="262" width="9" height="9" transform="rotate(0,41.5,266.5)"/><rect x="37" y="271" width="9" height="9" transform="rotate(0,41.5,275.5)"/></clipPath></defs><rect x="0" y="0" height="300" width="300" clip-path="url('#clip-path-background-color')" fill="#fff"/><rect x="0" y="0" height="300" width="300" clip-path="url('#clip-path-dot-color')" fill="#000000"/></svg>